<svg width="30" height="31" viewBox="0 0 30 31" fill="none" xmlns="http://www.w3.org/2000/svg">
<path fill-rule="evenodd" clip-rule="evenodd" d="M0.333374 3.36864C0.333374 2.71868 0.591569 2.09534 1.05116 1.63576C1.51075 1.17617 2.13408 0.917972 2.78404 0.917972H27.2134C27.5355 0.917446 27.8545 0.980456 28.1522 1.10339C28.4499 1.22633 28.7205 1.40679 28.9484 1.63442C29.1763 1.86206 29.357 2.1324 29.4803 2.42999C29.6035 2.72757 29.6669 3.04654 29.6667 3.36864V27.798C29.6671 28.1201 29.6039 28.4392 29.4808 28.7369C29.3577 29.0347 29.1771 29.3052 28.9494 29.5331C28.7217 29.7609 28.4512 29.9416 28.1536 30.0649C27.8559 30.1881 27.5369 30.2515 27.2147 30.2513H2.78404C2.4621 30.2513 2.14332 30.1879 1.8459 30.0646C1.54849 29.9414 1.27827 29.7608 1.05069 29.5331C0.823104 29.3053 0.642617 29.035 0.519537 28.7375C0.396458 28.4401 0.333199 28.1212 0.333374 27.7993V3.36864ZM11.944 12.102H15.916V14.0966C16.4894 12.95 17.956 11.918 20.16 11.918C24.3854 11.918 25.3867 14.202 25.3867 18.3926V26.1553H21.1107V19.3473C21.1107 16.9606 20.5374 15.614 19.0814 15.614C17.0614 15.614 16.2214 17.066 16.2214 19.3473V26.1553H11.944V12.102ZM4.61071 25.9726H8.88804V11.918H4.61071V25.9713V25.9726ZM9.50004 7.33397C9.50811 7.7002 9.44294 8.06435 9.30836 8.40506C9.17378 8.74576 8.97251 9.05615 8.71635 9.31802C8.46019 9.57988 8.15431 9.78794 7.81665 9.92998C7.47899 10.072 7.11636 10.1452 6.75004 10.1452C6.38372 10.1452 6.02109 10.072 5.68343 9.92998C5.34578 9.78794 5.03989 9.57988 4.78373 9.31802C4.52757 9.05615 4.3263 8.74576 4.19172 8.40506C4.05714 8.06435 3.99198 7.7002 4.00004 7.33397C4.01587 6.61511 4.31255 5.93103 4.82656 5.42822C5.34056 4.92541 6.03101 4.64386 6.75004 4.64386C7.46908 4.64386 8.15953 4.92541 8.67353 5.42822C9.18753 5.93103 9.48421 6.61511 9.50004 7.33397Z" fill="black"/>
</svg>
