<svg width="31" height="25" viewBox="0 0 31 25" fill="none" xmlns="http://www.w3.org/2000/svg">
<path d="M30.5238 3.16936C29.4105 3.66269 28.2145 3.99602 26.9571 4.14669C28.2545 3.37041 29.2251 2.14865 29.6878 0.709358C28.4689 1.43334 27.1349 1.94295 25.7438 2.21602C24.8083 1.21718 23.5692 0.555126 22.2189 0.332657C20.8686 0.110187 19.4826 0.339747 18.2761 0.985695C17.0697 1.63164 16.1102 2.65784 15.5467 3.90496C14.9832 5.15209 14.8472 6.55036 15.1598 7.88269C12.6901 7.75869 10.274 7.11676 8.06838 5.99856C5.86277 4.88037 3.91693 3.31091 2.35715 1.39202C1.82381 2.31202 1.51715 3.37869 1.51715 4.51469C1.51655 5.53735 1.76839 6.54435 2.25032 7.44633C2.73224 8.34832 3.42936 9.11741 4.27981 9.68536C3.29351 9.65397 2.32898 9.38747 1.46648 8.90802V8.98802C1.46638 10.4223 1.96252 11.8125 2.87072 12.9227C3.77892 14.0328 5.04324 14.7946 6.44915 15.0787C5.53419 15.3263 4.57493 15.3628 3.64381 15.1854C4.04048 16.4195 4.81314 17.4987 5.85364 18.2719C6.89413 19.0451 8.15037 19.4736 9.44648 19.4974C7.24626 21.2246 4.529 22.1615 1.73181 22.1574C1.23632 22.1575 0.741247 22.1286 0.249146 22.0707C3.08845 23.8963 6.3936 24.8651 9.76915 24.8614C21.1958 24.8614 27.4425 15.3974 27.4425 7.18936C27.4425 6.92269 27.4358 6.65336 27.4238 6.38669C28.6389 5.50799 29.6877 4.41989 30.5211 3.17336L30.5238 3.16936Z" fill="black"/>
</svg>
