<svg width="24" height="24" viewBox="0 0 24 24" fill="none" xmlns="http://www.w3.org/2000/svg">
<path d="M21.28 0.0664062H2.71998C1.48798 0.0664062 0.47998 1.07441 0.47998 2.30641V20.8664C0.47998 22.0984 1.48798 23.1064 2.71998 23.1064H21.28C22.512 23.1064 23.52 22.0984 23.52 20.8664V2.30641C23.52 1.07441 22.512 0.0664062 21.28 0.0664062ZM14.1056 3.41681H15.1177V7.54225C15.1177 7.78097 15.1177 7.90481 15.1302 7.93745C15.1526 8.09489 15.232 8.17521 15.3683 8.17521C15.5712 8.17521 15.7846 8.01777 16.0096 7.69969V3.41681H17.0253V9.02001H16.0096V8.40881C15.6054 8.87249 15.2198 9.09777 14.8496 9.09777C14.5225 9.09777 14.2969 8.96497 14.1955 8.68081C14.1395 8.51153 14.1056 8.24305 14.1056 7.84753V3.41681ZM10.2697 5.24337C10.2697 4.64465 10.3718 4.20657 10.5878 3.92337C10.8688 3.54065 11.2643 3.34897 11.7699 3.34897C12.2787 3.34897 12.6736 3.54065 12.9549 3.92337C13.1673 4.20657 13.2701 4.64465 13.2701 5.24337V7.20657C13.2701 7.80177 13.1677 8.24337 12.9549 8.52465C12.6736 8.90641 12.279 9.09809 11.7699 9.09809C11.264 9.09809 10.8685 8.90641 10.5878 8.52465C10.3718 8.24337 10.2697 7.80177 10.2697 7.20657V5.24337ZM7.55422 1.50065L8.3539 4.45329L9.12158 1.50065H10.2601L8.9059 5.97489V9.02001H7.7795V5.97489C7.67774 5.43473 7.45246 4.64433 7.0915 3.59569C6.85406 2.89809 6.6067 2.19729 6.36958 1.50065H7.55422ZM20.0233 19.7522C19.8205 20.6363 19.0966 21.2885 18.2262 21.3854C16.1641 21.6158 14.0774 21.6171 12 21.6158C9.92222 21.6171 7.8355 21.6158 5.77374 21.3854C4.90302 21.2882 4.18046 20.636 3.97726 19.7522C3.68766 18.4926 3.68766 17.1179 3.68766 15.8219C3.68766 14.5246 3.69086 13.1509 3.98078 11.891C4.18366 11.0072 4.90654 10.3554 5.77726 10.2581C7.83902 10.027 9.92574 10.0264 12.0035 10.027C14.0809 10.0264 16.1677 10.027 18.2297 10.2581C19.0998 10.3554 19.8233 11.0072 20.0265 11.891C20.3161 13.1512 20.3145 14.5246 20.3145 15.8219C20.3149 17.1179 20.3133 18.4926 20.0233 19.7522Z" fill="black"/>
</svg>
