<svg width="26" height="26" viewBox="0 0 26 26" fill="none" xmlns="http://www.w3.org/2000/svg">
<path d="M24.5 0.0859375H1.5C0.946875 0.0859375 0.5 0.532812 0.5 1.08594V24.0859C0.5 24.6391 0.946875 25.0859 1.5 25.0859H24.5C25.0531 25.0859 25.5 24.6391 25.5 24.0859V1.08594C25.5 0.532812 25.0531 0.0859375 24.5 0.0859375ZM21.6125 7.38281H19.6156C18.05 7.38281 17.7469 8.12656 17.7469 9.22031V11.6297H21.4844L20.9969 15.4016H17.7469V25.0859H13.85V15.4047H10.5906V11.6297H13.85V8.84844C13.85 5.62031 15.8219 3.86094 18.7031 3.86094C20.0844 3.86094 21.2688 3.96406 21.6156 4.01094V7.38281H21.6125Z" fill="black"/>
</svg>
