<svg width="26" height="26" viewBox="0 0 26 26" fill="none" xmlns="http://www.w3.org/2000/svg">
<path d="M24.5 0.0859375H1.5C0.946875 0.0859375 0.5 0.532812 0.5 1.08594V24.0859C0.5 24.6391 0.946875 25.0859 1.5 25.0859H24.5C25.0531 25.0859 25.5 24.6391 25.5 24.0859V1.08594C25.5 0.532812 25.0531 0.0859375 24.5 0.0859375ZM14.1406 16.0484C12.7688 17.9797 10.0125 18.5422 7.8625 17.7141C5.70625 16.8922 4.175 14.6141 4.35938 12.2922C4.40625 9.45156 7.02188 6.96094 9.8625 7.05781C11.225 6.99531 12.5062 7.58594 13.55 8.42031C13.1031 8.92656 12.6437 9.41406 12.15 9.86719C10.8969 9.00156 9.1125 8.75469 7.85938 9.75469C6.06563 10.9953 5.98438 13.9234 7.70938 15.2578C9.3875 16.7797 12.5594 16.0234 13.025 13.6922C11.975 13.6766 10.9187 13.6922 9.86875 13.6578C9.86562 13.0297 9.8625 12.4047 9.86563 11.7766C11.6219 11.7703 13.3813 11.7672 15.1406 11.7828C15.2437 13.2609 15.0469 14.8297 14.1406 16.0484ZM21.7188 13.3516C21.1938 13.3578 20.6687 13.3609 20.1437 13.3641C20.1375 13.8891 20.1344 14.4141 20.1344 14.9391H18.5625C18.5562 14.4141 18.5562 13.8922 18.5531 13.3672C18.0281 13.3609 17.5031 13.3578 16.9781 13.3516V11.7859C17.5031 11.7797 18.0281 11.7766 18.5531 11.7766C18.5562 11.2516 18.5625 10.7266 18.5656 10.2016H20.1344L20.1437 11.7766C20.6687 11.7828 21.1938 11.7828 21.7188 11.7859V13.3516Z" fill="black"/>
</svg>
