<svg width="26" height="26" viewBox="0 0 26 26" fill="none" xmlns="http://www.w3.org/2000/svg">
<path d="M13.0001 8.41968C10.7064 8.41968 8.83452 10.2916 8.83452 12.5853C8.83452 14.8791 10.7064 16.7509 13.0001 16.7509C15.2939 16.7509 17.1658 14.8791 17.1658 12.5853C17.1658 10.2916 15.2939 8.41968 13.0001 8.41968ZM25.4939 12.5853C25.4939 10.8603 25.5095 9.15093 25.4126 7.42905C25.3158 5.42905 24.8595 3.65405 23.397 2.19155C21.9314 0.725929 20.1595 0.272804 18.1595 0.175929C16.4345 0.0790545 14.7251 0.0946795 13.0033 0.0946795C11.2783 0.0946795 9.5689 0.0790545 7.84702 0.175929C5.84702 0.272804 4.07202 0.729054 2.60952 2.19155C1.1439 3.65718 0.690773 5.42905 0.593898 7.42905C0.497023 9.15405 0.512648 10.8634 0.512648 12.5853C0.512648 14.3072 0.497023 16.0197 0.593898 17.7416C0.690773 19.7416 1.14702 21.5166 2.60952 22.9791C4.07515 24.4447 5.84702 24.8978 7.84702 24.9947C9.57202 25.0916 11.2814 25.0759 13.0033 25.0759C14.7283 25.0759 16.4376 25.0916 18.1595 24.9947C20.1595 24.8978 21.9345 24.4416 23.397 22.9791C24.8626 21.5134 25.3158 19.7416 25.4126 17.7416C25.5126 16.0197 25.4939 14.3103 25.4939 12.5853ZM13.0001 18.9947C9.45327 18.9947 6.59077 16.1322 6.59077 12.5853C6.59077 9.03843 9.45327 6.17593 13.0001 6.17593C16.547 6.17593 19.4095 9.03843 19.4095 12.5853C19.4095 16.1322 16.547 18.9947 13.0001 18.9947ZM19.672 7.4103C18.8439 7.4103 18.1751 6.74155 18.1751 5.91343C18.1751 5.0853 18.8439 4.41655 19.672 4.41655C20.5001 4.41655 21.1689 5.0853 21.1689 5.91343C21.1691 6.11007 21.1306 6.30483 21.0555 6.48655C20.9803 6.66827 20.8701 6.83338 20.731 6.97243C20.592 7.11148 20.4269 7.22173 20.2451 7.29686C20.0634 7.372 19.8687 7.41055 19.672 7.4103Z" fill="black"/>
</svg>
