<svg width="20" height="25" viewBox="0 0 20 25" fill="none" xmlns="http://www.w3.org/2000/svg">
<path d="M19.0987 18.8193C18.9587 19.7873 16.9827 22.298 16.0733 22.662C15.764 22.786 15.464 22.7553 15.224 22.5713C15.0693 22.4513 14.9107 22.2086 12.78 18.75L12.1467 17.7193C11.9027 17.35 11.9493 16.8633 12.2507 16.4926C12.548 16.1326 12.9827 15.9993 13.36 16.1433C13.3813 16.154 14.9533 16.6726 14.9533 16.6726C18.5373 17.85 18.6533 17.8953 18.808 18.0086C19.0347 18.194 19.14 18.4833 19.0933 18.8193H19.0987ZM11.9173 13.558C11.664 13.1726 11.668 12.718 11.9307 12.4046L12.9253 11.046C15.1147 8.06597 15.2347 7.90864 15.3827 7.80464C15.5112 7.72129 15.6598 7.6743 15.8129 7.66867C15.966 7.66304 16.1177 7.69896 16.252 7.77264C17.12 8.19397 18.8733 10.798 18.9787 11.798V11.8313C18.9975 11.9808 18.9753 12.1326 18.9145 12.2705C18.8537 12.4084 18.7565 12.5271 18.6333 12.614C18.4693 12.7193 18.32 12.7806 14.2453 13.7686C13.6013 13.9326 13.2427 14.022 13.032 14.098L13.06 14.0673C12.6573 14.1886 12.2067 13.994 11.952 13.5913L11.9173 13.558ZM9.41732 12.0126C9.22265 12.074 8.62932 12.2593 7.89865 11.0766C7.89865 11.0766 2.97332 3.32597 2.85865 3.0873C2.78799 2.8193 2.87332 2.5153 3.11199 2.26997C3.84532 1.5113 7.82399 0.396638 8.86532 0.649971C9.20532 0.737971 9.43865 0.952637 9.51999 1.25397C9.57999 1.5873 10.064 8.78197 10.1333 10.3926C10.2013 11.7713 9.61065 11.954 9.41732 12.0126ZM10.0667 19.8966C10.056 23.666 10.0467 23.7926 9.98532 23.9713C9.87999 24.2526 9.63865 24.4406 9.30532 24.502C8.34532 24.6646 5.34265 23.5553 4.71732 22.8126C4.60331 22.6707 4.53085 22.4999 4.50799 22.3193C4.49065 22.1993 4.50799 22.0793 4.55199 21.974C4.62799 21.7793 4.73199 21.6286 7.42932 18.4673L8.22132 17.526C8.49199 17.1793 8.97199 17.0753 9.41999 17.254C9.85332 17.4193 10.124 17.794 10.0947 18.198V19.8766L10.0667 19.8966ZM1.89332 17.486C1.59732 17.478 1.33332 17.2993 1.17999 17.0086C1.06932 16.7926 0.990655 16.438 0.939988 16.006C0.803988 14.7073 0.970655 12.7473 1.35865 12.1246C1.54265 11.8393 1.80932 11.6886 2.10399 11.6993C2.29865 11.6993 2.47199 11.7606 6.32665 13.3473L7.45732 13.7966C7.85999 13.9446 8.10932 14.366 8.08665 14.846C8.05732 15.31 7.78799 15.6673 7.39199 15.774L5.78932 16.2833C2.20399 17.4353 2.08532 17.4673 1.89732 17.4526L1.89332 17.486ZM16.8533 24.582H16.848L16.844 24.586L16.8533 24.582Z" fill="black"/>
</svg>
